<svg xmlns="http://www.w3.org/2000/svg" xmlns:xlink="http://www.w3.org/1999/xlink" version="1.1" x="0px" y="0px" viewBox="0 0 100 125" enable-background="new 0 0 100 100" xml:space="preserve"><path d="M92.188,52.813H66.875v-11.25c0-0.746-0.298-1.461-0.823-1.988L51.986,25.512c-0.256-0.255-0.549-0.445-0.861-0.582v-4.461  h11.531v-7.031H48.875v11.491c-0.313,0.137-0.607,0.327-0.863,0.583L33.948,39.574c-0.527,0.527-0.824,1.244-0.824,1.988v11.25  H7.813C6.259,52.813,5,54.07,5,55.625V83.75c0,1.553,1.259,2.813,2.813,2.813h84.375c1.554,0,2.813-1.26,2.813-2.813V55.625  C95,54.07,93.74,52.813,92.188,52.813z M19.063,80.938h-8.438V72.5h8.438V80.938z M19.063,66.875h-8.438v-8.438h8.438V66.875z   M33.125,80.938h-8.438V72.5h8.438V80.938z M33.125,66.875h-8.438v-8.438h8.438V66.875z M50,37.064c2.486,0,4.5,2.015,4.5,4.5  s-2.014,4.5-4.5,4.5s-4.5-2.015-4.5-4.5C45.5,39.079,47.513,37.064,50,37.064z M56.5,80.938h-13V67.938  c0-3.59,2.91-6.499,6.499-6.499s6.501,2.909,6.501,6.499V80.938z M75.313,80.938h-8.438V72.5h8.438V80.938z M75.313,66.875h-8.438  v-8.438h8.438V66.875z M89.375,80.938h-8.438V72.5h8.438V80.938z M89.375,66.875h-8.438v-8.438h8.438V66.875z"/><text x="0" y="115" fill="#000000" font-size="5px" font-weight="bold" font-family="'Helvetica Neue', Helvetica, Arial-Unicode, Arial, Sans-serif">Created by David</text><text x="0" y="120" fill="#000000" font-size="5px" font-weight="bold" font-family="'Helvetica Neue', Helvetica, Arial-Unicode, Arial, Sans-serif">from the Noun Project</text></svg>