<?xml version="1.0" encoding="UTF-8" standalone="no"?>
<svg
   xmlns:dc="http://purl.org/dc/elements/1.1/"
   xmlns:cc="http://creativecommons.org/ns#"
   xmlns:rdf="http://www.w3.org/1999/02/22-rdf-syntax-ns#"
   xmlns:svg="http://www.w3.org/2000/svg"
   xmlns="http://www.w3.org/2000/svg"
   xmlns:sodipodi="http://sodipodi.sourceforge.net/DTD/sodipodi-0.dtd"
   xmlns:inkscape="http://www.inkscape.org/namespaces/inkscape"
   version="1.1"
   x="0px"
   y="0px"
   viewBox="0 0 14.999551 12.186997"
   enable-background="new 0 0 100 100"
   xml:space="preserve"
   id="svg3037"
   inkscape:version="0.48.4 r9939"
   width="100%"
   height="100%"
   sodipodi:docname="sold_school-15.svg"><metadata
     id="metadata3049"><rdf:RDF><cc:Work
         rdf:about=""><dc:format>image/svg+xml</dc:format><dc:type
           rdf:resource="http://purl.org/dc/dcmitype/StillImage" /><dc:title /></cc:Work></rdf:RDF></metadata><defs
     id="defs3047" /><sodipodi:namedview
     pagecolor="#ffffff"
     bordercolor="#666666"
     borderopacity="1"
     objecttolerance="10"
     gridtolerance="10"
     guidetolerance="10"
     inkscape:pageopacity="0"
     inkscape:pageshadow="2"
     inkscape:window-width="1383"
     inkscape:window-height="812"
     id="namedview3045"
     showgrid="false"
     inkscape:zoom="21.360282"
     inkscape:cx="-10.199977"
     inkscape:cy="7.8411462"
     inkscape:window-x="75"
     inkscape:window-y="24"
     inkscape:window-maximized="0"
     inkscape:current-layer="svg3037"
     fit-margin-top="0"
     fit-margin-left="0"
     fit-margin-right="0"
     fit-margin-bottom="0" /><path
     d="m 14.530737,6.562235 h -4.21866 V 4.687312 c 0,-0.124329 -0.04966,-0.24349 -0.137161,-0.33132 L 7.830679,2.012255 c -0.04266,-0.0425 -0.0915,-0.07416 -0.143494,-0.097 V 1.171785 H 9.608939 V 0 H 7.3122 v 1.915088 c -0.05217,0.02283 -0.101163,0.0545 -0.143827,0.09716 L 4.824469,4.355818 C 4.736639,4.443648 4.687141,4.563143 4.687141,4.687138 V 6.562061 H 0.468814 C 0.209825,6.562228 0,6.771719 0,7.030875 v 4.687308 c 0,0.258823 0.209825,0.468814 0.468814,0.468814 h 14.061923 c 0.25899,0 0.468814,-0.209991 0.468814,-0.468814 V 7.030875 C 14.999385,6.771719 14.789393,6.562228 14.530737,6.562228 z m -12.187,4.687307 H 0.937462 V 9.843267 h 1.406275 v 1.406275 z m 0,-2.343737 H 0.937462 V 7.49953 h 1.406275 v 1.406275 z m 2.343571,2.343737 H 3.281032 V 9.843267 h 1.406276 v 1.406275 z m 0,-2.343737 H 3.281032 V 7.49953 H 4.687308 V 8.905805 z M 7.499692,3.937509 c 0.414317,0 0.74997,0.33582 0.74997,0.749969 0,0.41415 -0.335653,0.74997 -0.74997,0.74997 -0.414316,0 -0.749969,-0.33582 -0.749969,-0.74997 0,-0.414149 0.335486,-0.749969 0.749969,-0.749969 z m 1.083289,7.312033 H 6.416403 V 9.082965 c 0,-0.598309 0.484981,-1.083123 1.083123,-1.083123 0.598142,0 1.083455,0.484814 1.083455,1.083123 v 2.166577 z m 3.135372,0 H 10.312077 V 9.843267 h 1.406276 v 1.406275 z m 0,-2.343737 H 10.312077 V 7.49953 h 1.406276 v 1.406275 z m 2.34357,2.343737 H 12.655647 V 9.843267 h 1.406276 v 1.406275 z m 0,-2.343737 H 12.655647 V 7.49953 h 1.406276 v 1.406275 z"
     id="path3039"
     inkscape:connector-curvature="0"
     style="fill:#1b9e77;fill-opacity:1" /></svg>