<?xml version="1.0" encoding="UTF-8" standalone="no"?>
<svg
   xmlns:dc="http://purl.org/dc/elements/1.1/"
   xmlns:cc="http://creativecommons.org/ns#"
   xmlns:rdf="http://www.w3.org/1999/02/22-rdf-syntax-ns#"
   xmlns:svg="http://www.w3.org/2000/svg"
   xmlns="http://www.w3.org/2000/svg"
   xmlns:sodipodi="http://sodipodi.sourceforge.net/DTD/sodipodi-0.dtd"
   xmlns:inkscape="http://www.inkscape.org/namespaces/inkscape"
   version="1.1"
   x="0px"
   y="0px"
   viewBox="0 0 14.999551 12.186997"
   enable-background="new 0 0 100 100"
   xml:space="preserve"
   id="svg3037"
   inkscape:version="0.48.4 r9939"
   width="100%"
   height="100%"
   sodipodi:docname="unsold_school-15.svg"><metadata
     id="metadata3049"><rdf:RDF><cc:Work
         rdf:about=""><dc:format>image/svg+xml</dc:format><dc:type
           rdf:resource="http://purl.org/dc/dcmitype/StillImage" /><dc:title /></cc:Work></rdf:RDF></metadata><defs
     id="defs3047" /><sodipodi:namedview
     pagecolor="#ffffff"
     bordercolor="#666666"
     borderopacity="1"
     objecttolerance="10"
     gridtolerance="10"
     guidetolerance="10"
     inkscape:pageopacity="0"
     inkscape:pageshadow="2"
     inkscape:window-width="1383"
     inkscape:window-height="812"
     id="namedview3045"
     showgrid="false"
     inkscape:zoom="21.360282"
     inkscape:cx="-10.199977"
     inkscape:cy="7.8411462"
     inkscape:window-x="75"
     inkscape:window-y="24"
     inkscape:window-maximized="0"
     inkscape:current-layer="svg3037"
     fit-margin-top="0"
     fit-margin-left="0"
     fit-margin-right="0"
     fit-margin-bottom="0" /><path
     d="m 14.530737,6.562235 h -4.21866 V 4.687312 c 0,-0.124329 -0.04966,-0.24349 -0.137161,-0.33132 L 7.830679,2.012255 c -0.04266,-0.0425 -0.0915,-0.07416 -0.143494,-0.097 V 1.171785 H 9.608939 V 0 H 7.3122 v 1.915088 c -0.05217,0.02283 -0.101163,0.0545 -0.143827,0.09716 L 4.824469,4.355818 C 4.736639,4.443648 4.687141,4.563143 4.687141,4.687138 V 6.562061 H 0.468814 C 0.209825,6.562228 0,6.771719 0,7.030875 v 4.687308 c 0,0.258823 0.209825,0.468814 0.468814,0.468814 h 14.061923 c 0.25899,0 0.468814,-0.209991 0.468814,-0.468814 V 7.030875 C 14.999385,6.771719 14.789393,6.562228 14.530737,6.562228 z m -12.187,4.687307 H 0.937462 V 9.843267 h 1.406275 v 1.406275 z m 0,-2.343737 H 0.937462 V 7.49953 h 1.406275 v 1.406275 z m 2.343571,2.343737 H 3.281032 V 9.843267 h 1.406276 v 1.406275 z m 0,-2.343737 H 3.281032 V 7.49953 H 4.687308 V 8.905805 z M 7.499692,3.937509 c 0.414317,0 0.74997,0.33582 0.74997,0.749969 0,0.41415 -0.335653,0.74997 -0.74997,0.74997 -0.414316,0 -0.749969,-0.33582 -0.749969,-0.74997 0,-0.414149 0.335486,-0.749969 0.749969,-0.749969 z m 1.083289,7.312033 H 6.416403 V 9.082965 c 0,-0.598309 0.484981,-1.083123 1.083123,-1.083123 0.598142,0 1.083455,0.484814 1.083455,1.083123 v 2.166577 z m 3.135372,0 H 10.312077 V 9.843267 h 1.406276 v 1.406275 z m 0,-2.343737 H 10.312077 V 7.49953 h 1.406276 v 1.406275 z m 2.34357,2.343737 H 12.655647 V 9.843267 h 1.406276 v 1.406275 z m 0,-2.343737 H 12.655647 V 7.49953 h 1.406276 v 1.406275 z"
     id="path3039"
     inkscape:connector-curvature="0"
     style="fill:#a6cee3;fill-opacity:1" /><path
     style="color:#000000;fill:#d95f02;fill-opacity:1;fill-rule:nonzero;marker:none;visibility:visible;display:inline;overflow:visible;enable-background:accumulate"
     d="M 0.24258429,12.093108 C 0.17450633,12.056124 0.09550456,11.959022 0.06702481,11.877325 -0.00383804,11.674048 -0.00518165,7.0869185 0.06556221,6.8839826 0.16915394,6.5868189 0.11694994,6.5930121 2.5182449,6.5930121 l 2.1785847,0 0,-0.9612288 c 0,-0.7157251 0.016576,-0.9997052 0.0649,-1.1118767 0.035695,-0.082856 0.6255746,-0.7072476 1.3108442,-1.3875362 l 1.2459437,-1.2368882 0,-0.92834536 0,-0.92834528 1.1235807,0 1.1235807,0 0,0.56179033 0,0.56179031 -0.9597252,0 -0.9597252,0 0,0.3427096 0,0.3427097 1.3099177,1.3076962 1.3099175,1.3076962 0.01263,1.05321 0.01263,1.0532103 2.200345,0.023408 c 1.210191,0.012874 2.234251,0.040326 2.275692,0.061003 0.201269,0.1004261 0.205549,0.1578771 0.205549,2.7589069 l 0,2.477979 -0.15289,0.136599 -0.15289,0.1366 -7.1503845,-0.0019 c -6.1238394,-0.0016 -7.16815429,-0.01153 -7.27416221,-0.06912 z m 2.11345221,-1.544156 0,-0.7256454 -0.7256458,0 -0.72564589,0 0,0.7256454 0,0.725646 0.72564589,0 0.7256458,0 0,-0.725646 z m 2.3407931,0 0,-0.7256454 -0.7256459,0 -0.7256458,0 0,0.7256454 0,0.725646 0.7256458,0 0.7256459,0 0,-0.725646 z M 8.581518,10.045682 C 8.5803851,8.6920401 8.5635557,8.5971112 8.2732393,8.3067948 7.8207818,7.8543373 6.9865723,7.9150864 6.6153632,8.4275258 6.4179103,8.7001018 6.3822006,8.9679981 6.3822006,10.17673 l 0,1.097868 1.1001727,0 1.1001728,0 -0.00103,-1.228916 1.9e-6,0 z m 3.137691,0.502051 0,-0.7268651 -0.713942,0.012923 -0.713942,0.012923 -0.01309,0.6531675 c -0.0072,0.359242 -0.0026,0.680516 0.01023,0.713942 0.01769,0.04609 0.193328,0.06077 0.727029,0.06077 l 0.703707,0 0,-0.726865 z m 2.340793,0.0012 0,-0.7256458 -0.702238,0 -0.702238,0 0,0.7256458 0,0.725646 0.702238,0 0.702238,0 0,-0.725646 z M 2.3560365,8.208157 l 0,-0.7256458 -0.7256458,0 -0.72564589,0 0,0.7256458 0,0.7256459 0.72564589,0 0.7256458,0 0,-0.7256459 z m 2.3407931,0 0,-0.7256458 -0.7256459,0 -0.7256458,0 0,0.7256458 0,0.7256459 0.7256458,0 0.7256459,0 0,-0.7256459 z m 7.0223794,-0.00122 0,-0.7268649 -0.713942,0.012923 -0.713942,0.012924 -0.01309,0.6531674 c -0.0072,0.3592425 -0.0026,0.6805163 0.01023,0.7139419 0.01769,0.046092 0.193328,0.060775 0.727029,0.060775 l 0.703707,0 0,-0.7268654 z m 2.340793,0.00122 0,-0.7256458 -0.702238,0 -0.702238,0 0,0.7256458 0,0.7256459 0.702238,0 0.702238,0 0,-0.7256459 z M 7.8325358,5.3640958 C 8.1172793,5.2185991 8.2214174,5.0588943 8.2442415,4.7327109 8.2600021,4.5074675 8.2450327,4.436531 8.1536426,4.3033396 7.9909846,4.0662876 7.8208469,3.9608628 7.5605834,3.9358548 7.1137607,3.8929208 6.7459238,4.223502 6.7459238,4.668003 c 0,0.2701031 0.099426,0.4767146 0.3033537,0.6303834 0.2606182,0.1963879 0.489875,0.2156208 0.7832583,0.065709 l 0,0 z"
     id="path4429"
     inkscape:connector-curvature="0" /></svg>